<svg xmlns="http://www.w3.org/2000/svg" viewBox="0 0 64 64" width="64" height="64">
  <circle cx="32" cy="32" r="32" fill="#ff1493" />
  <g transform="translate(14.1 10) scale(0.408)">
    <path
      d="M48.281.001c-5.54.003-8.927.555-14.257 2.539-23.57 10.449-21.989 31.427-26.753 53.157-1.323 6.88-6.052 19.529-6.999 23.357-.375 1.515-.36 3.768.031 4.705 1.116 2.67 3.311 3.671 8.054 3.677 5.837.007 7.933 1.753 9.59 7.989 1.39 5.239 1.995 6.755 3.225 8.089 2.02 2.191 5.686 2.998 9.04 1.988 1.154-.347 3.327-1.526 6.008-3.26 4.51-2.917 6.8-3.432 9.14-2.057.496.292 2.01 1.59 3.367 2.886 2.933 2.801 4.123 3.658 5.917 4.258 2.033.68 3.521.566 5.407-.413.695-.36 2.803-2.603 4.432-4.715 3.06-3.965 5-4.122 10.987-.89 1.53.825 3.325 1.095 4.738.712 1.572-.426 3.272-2.688 3.984-5.3 1.158-4.244 5.108-35.146 2.836-58.694C84.851 15.501 69.313-.012 48.281 0Z"
      fill="#fff"
    />
    <path
      d="M47.274 45.149c-4.202-1.49-5.952-9.004-3.304-14.184.732-1.432 1.786-2.506 3-3.058.772-.35 1.878-.413 2.715-.153 4.287 1.332 6.114 9.06 3.377 14.286-.769 1.466-1.956 2.63-3.13 3.067-.725.27-1.962.288-2.658.04zM67.012 45.149c-4.202-1.49-5.952-9.004-3.304-14.184.732-1.432 1.786-2.506 3-3.058.772-.35 1.878-.413 2.716-.153 4.287 1.332 6.113 9.06 3.376 14.286-.769 1.466-1.956 2.63-3.13 3.067-.725.27-1.961.288-2.658.04z"
      fill="#000"
    />
  </g>
</svg>
