<?xml version="1.0" encoding="utf-8"?>
<svg viewBox="58.697 38.153 388.61 397.336" xmlns="http://www.w3.org/2000/svg">
  <ellipse style="fill: rgb(255, 255, 255);" cx="178.295" cy="107.752" rx="9.213" ry="9.213"/>
  <ellipse style="fill: rgb(255, 255, 255);" cx="165.252" cy="183.721" rx="14.262" ry="14.262"/>
  <ellipse style="fill: rgb(255, 255, 255);" cx="399.612" cy="313.348" rx="13.03" ry="13.03"/>
  <ellipse style="fill: rgb(255, 255, 255);" cx="346.512" cy="282.945" rx="17.373" ry="17.373"/>
  <path d="M 317.248 347.825 C 347.019 347.825 373.277 362.869 388.833 385.77 C 353.804 416.712 307.777 435.489 257.365 435.489 C 248.348 435.489 239.471 434.888 230.773 433.725 C 231.083 386.23 269.681 347.825 317.248 347.825 Z M 121.007 372.838 C 119.276 373.837 117.41 374.83 115.414 375.813 C 96.851 356.858 82.055 334.2 72.235 309.051 C 72.359 308.814 72.497 308.586 72.648 308.366 C 73.813 306.671 75.777 305.005 78.249 303.578 C 80.481 302.289 82.605 301.54 84.241 301.516 C 86.012 301.488 87.805 302.489 88.677 304 C 89.306 305.09 89.81 306.539 90.143 308.124 C 91.527 314.652 93.991 323.032 97.559 333.358 C 101.126 343.682 104.554 352.257 108.419 360.728 C 110.201 359.871 111.578 359.16 114.182 357.656 C 126.063 350.797 132.573 342.457 134.268 332.01 C 135.975 321.485 133.429 310.473 126.459 298.399 C 121.829 290.38 116.287 285.77 109.296 284.064 C 102.292 282.356 94.93 283.832 86.548 288.672 C 81.106 291.813 76.297 295.703 71.934 300.491 C 71.237 301.256 70.564 302.023 69.914 302.794 C 67.826 296.861 66.011 290.799 64.486 284.624 C 69.248 280.23 74.234 276.52 79.351 273.566 C 87.931 268.612 96.413 265.756 104.461 265.126 C 112.542 264.494 120.228 266.165 127.029 270.036 C 133.821 273.905 139.725 280.097 144.453 288.287 C 150.577 298.893 153.878 309.579 154.229 319.97 C 154.578 330.384 151.889 340.366 146.289 349.443 C 140.696 358.51 132.167 366.395 121.007 372.838 Z M 215.549 312.766 C 212.296 318.262 207.771 322.745 202.271 325.92 C 194.782 330.244 187.394 331.639 180.786 329.93 C 174.18 328.221 168.565 323.581 164.475 316.496 C 161.632 311.572 159.964 306.211 159.582 300.757 C 159.198 295.288 160.168 290.012 162.423 285.348 C 164.689 280.661 168.34 276.782 173.031 274.074 C 177.275 271.624 181.791 270.86 185.893 271.927 C 190.004 272.997 193.57 275.93 196.062 280.246 C 198.966 285.276 199.7 290.984 198.178 296.669 C 196.662 302.325 192.809 307.815 186.559 314.106 C 189.684 316.185 191.348 314.906 195.914 312.27 C 198.841 310.58 201.499 307.72 204.144 303.366 C 205.614 300.947 206.561 298.944 207.429 296.578 C 206.728 295.617 206.503 295.211 205.873 294.119 C 202.55 288.364 200.71 282.452 200.479 276.752 C 200.249 271.068 201.322 265.767 203.628 261.26 C 205.934 256.752 209.282 253.145 213.353 250.794 C 217.394 248.461 221.645 247.778 225.373 248.905 C 229.067 250.022 232.248 252.683 234.417 256.439 C 236.191 259.512 237.086 262.763 236.954 265.743 C 236.817 268.828 235.317 271.507 232.905 272.9 C 231.405 273.766 229.665 274.183 228.236 273.98 C 226.739 273.77 225.248 272.717 224.451 271.337 C 224.125 270.772 223.81 270.027 223.568 269.255 C 223.344 268.546 223.155 267.905 223.06 267.575 C 222.836 266.44 222.524 265.6 222.07 264.814 C 221.666 264.114 221.481 263.941 221.053 263.809 C 220.641 263.682 220.503 263.709 219.901 264.057 C 218.588 264.815 217.868 265.869 217.366 267.838 C 216.846 269.88 216.848 272.104 217.389 274.867 C 217.932 277.644 218.967 280.318 220.589 283.128 C 222.805 286.965 225.01 289.089 227.621 289.986 C 230.197 290.87 232.73 290.46 235.996 288.574 C 238.644 287.046 240.885 284.619 242.993 280.957 C 244.498 278.345 245.557 275.672 246.457 272.361 C 244.996 269.504 243.555 266.206 241.873 261.763 C 239.834 256.377 238.204 251.16 236.997 246.166 C 236.318 243.422 236.244 240.939 236.908 239.237 C 237.581 237.514 239.379 235.768 241.823 234.357 C 243.731 233.255 245.662 232.651 247.155 232.748 C 248.75 232.85 250.365 233.911 251.212 235.379 C 252.273 237.216 253.993 241.774 256.328 248.869 C 259.051 257.411 261.143 262.9 262.644 265.499 C 263.779 267.466 264.748 268.628 265.763 269.297 C 266.618 269.862 266.966 269.862 267.952 269.293 C 268.884 268.755 269.628 267.492 270.446 264.85 C 271.175 262.492 271.859 259.497 272.618 255.431 C 270.309 252.501 268.423 249.593 266.186 245.718 C 260.983 236.707 256.419 226.206 252.554 214.363 C 248.679 202.487 246.716 191.445 246.717 181.475 C 246.718 171.332 250.031 163.939 256.302 160.318 C 259.794 158.302 263.914 158.163 267.739 159.92 C 271.491 161.643 274.852 164.968 277.471 169.505 C 280.821 175.307 283.098 181.835 284.212 188.818 C 285.325 195.802 285.168 202.44 284.085 210.55 C 289.212 208.143 292.195 208.8 297.403 210.722 C 302.548 212.62 306.375 215.665 309.871 220.025 C 312.294 218.416 313.553 217.273 316.082 214.924 C 316.041 214.424 316.061 214.637 316.038 214.131 C 315.733 207.525 316.912 201.213 319.51 195.572 C 322.122 189.902 326.089 185.429 331.074 182.551 C 332.779 181.567 334.636 181.124 335.878 181.541 C 336.97 181.909 337.648 182.468 338.628 183.367 C 339.707 182.531 340.459 181.982 342.112 181.028 C 343.96 179.961 345.871 179.395 347.351 179.538 C 348.917 179.69 350.495 180.787 351.353 182.274 C 352.249 183.825 353.786 187.736 355.916 193.836 C 358.909 202.685 361.258 208.549 363.004 211.574 C 363.492 212.419 363.832 212.736 364.442 212.961 C 365.019 213.173 365.181 213.158 365.741 212.835 C 366.752 212.251 367.539 210.972 368.373 208.369 C 369.115 206.057 369.812 203.063 370.589 198.958 C 368.506 196.315 366.891 193.822 364.966 190.488 C 360.044 181.963 355.515 171.565 351.437 159.435 C 347.347 147.272 345.166 135.903 344.944 125.559 C 344.718 115.036 347.915 107.425 354.198 103.798 C 357.854 101.687 362.182 101.722 366.175 103.87 C 370.081 105.973 373.872 110.154 377.271 116.042 C 378.57 118.291 379.759 120.738 380.837 123.379 C 379.612 117.318 378.938 111.514 378.819 106.001 C 378.617 96.61 381.143 89.538 386.154 85.547 C 398.944 96.446 410.334 108.939 420.018 122.717 C 420.423 124.953 420.78 127.266 421.088 129.655 C 422.843 143.246 422.854 157.33 421.212 172.302 C 423.211 174.742 424.482 175.5 426.177 175.955 C 427.84 176.401 429.287 176.146 431.211 175.036 C 432.225 174.45 433.122 173.566 434.134 172.124 C 435.16 170.661 435.912 169.185 436.478 167.457 C 436.944 166.116 437.812 164.85 438.843 164.255 C 439.79 163.709 441.117 163.676 442.295 164.081 C 444.142 168.773 445.815 173.552 447.307 178.41 C 445.273 183.501 441.798 187.629 437.128 190.325 C 430.224 194.311 422.952 194.338 416.39 190.389 C 416.231 190.294 416.132 190.234 416.074 190.2 C 415.163 194.25 414.357 195.99 412.671 199.439 C 410.434 204.017 406.833 207.816 402.214 210.483 C 395.777 214.199 388.774 214.017 382.306 209.973 C 382.277 209.954 382.25 209.937 382.225 209.921 C 381.422 213.707 380.813 215.153 379.441 218.428 C 377.575 222.88 374.875 226.267 371.659 228.124 C 369.146 229.575 366.074 230.096 363.029 229.597 C 360.011 229.103 358.618 228.341 356.541 227.01 C 355.666 233.86 353.268 238.742 347.444 242.104 C 342.881 244.739 337.852 245.227 333.179 243.473 C 328.552 241.736 324.514 238.027 321.482 232.776 C 320.891 231.752 320.939 231.813 320.681 231.323 C 319.153 232.504 318.411 233.048 316.758 234.124 C 318.723 240.879 318.518 246.388 316.643 252.363 C 314.762 258.362 311.183 263.04 306.292 265.864 C 298.993 270.078 291.524 270.379 284.914 266.693 C 284.084 266.229 284.469 266.44 284.245 266.306 C 281.909 275.656 278.411 281.961 272.726 285.243 C 267.939 288.007 262.937 288.352 258.707 286.166 C 257.591 285.589 257.573 285.539 257.012 285.175 C 255.889 288.16 255.114 289.264 253.299 291.923 C 249.935 296.852 245.937 300.71 241.554 303.24 C 234.543 307.288 227.532 308.521 221.224 306.769 C 219.971 306.421 219.726 306.311 218.996 306.027 C 218.062 308.209 217.203 309.97 215.549 312.766 Z M 387.161 149.246 C 388.881 162.856 388.895 176.982 387.29 192.021 C 389.306 194.474 390.531 195.273 392.084 195.764 C 393.591 196.24 394.744 196.09 396.296 195.194 C 398.935 193.67 400.623 191.79 401.736 189.149 C 402.738 186.769 403.587 183.668 404.453 179.364 C 402.37 176.734 400.763 174.259 398.841 170.93 C 394.223 162.932 389.951 153.284 386.073 142.106 C 386.487 144.405 386.85 146.785 387.161 149.246 Z M 178.644 287.877 C 176.449 289.144 175.522 291.13 175.478 294.814 C 175.439 298.126 176.251 301.399 178.046 304.889 C 180.688 302.164 182.428 299.545 183.428 296.872 C 184.562 293.846 184.474 291.615 183.168 289.353 C 182.53 288.248 181.995 287.779 181.092 287.493 C 180.214 287.214 179.648 287.297 178.644 287.877 Z M 241.338 228.956 C 238.236 230.747 235.087 231.456 232.536 230.873 C 229.98 230.288 227.654 228.415 226.119 225.757 C 224.56 223.056 224.284 219.796 225.353 216.777 C 226.409 213.788 228.674 211.188 231.725 209.426 C 234.475 207.838 237.416 207.145 240 207.511 C 242.659 207.886 245.066 209.613 246.54 212.166 C 248.282 215.183 248.736 218.559 247.776 221.536 C 246.824 224.486 244.527 227.115 241.338 228.956 Z M 261.813 174.509 C 261.535 174.461 261.578 174.454 261.352 174.585 C 261.035 174.767 260.949 175.014 260.816 176.245 C 260.67 177.591 260.769 179.397 261.134 181.859 C 261.874 186.837 263.562 193.17 266.24 200.987 C 268.92 208.811 269.207 210.276 273.34 219.023 C 273.013 211.158 272.706 206.057 271.748 198.109 C 270.798 190.246 268.965 184.052 266.172 179.215 C 264.949 177.096 263.908 175.796 262.866 175.032 C 262.383 174.679 262.14 174.565 261.812 174.509 Z M 298.848 252.01 C 300.717 250.93 301.729 249.464 302.29 246.977 C 302.857 244.461 302.591 242.124 301.493 238.985 C 298.653 238.609 296.165 237.773 293.502 235.969 C 290.858 234.178 288.613 231.763 287.009 228.984 C 286.605 228.285 286.169 227.371 285.713 226.279 C 283.969 227.654 283.157 229.667 282.939 232.654 C 282.673 236.304 283.766 240.168 286.394 244.72 C 288.584 248.513 290.732 250.751 293.168 251.855 C 295.584 252.949 297.17 252.978 298.848 252.01 Z M 343.626 226.85 C 344.808 226.167 345.383 225.069 345.693 222.729 C 346.014 220.318 345.695 217.689 344.632 214.495 L 338.076 195.045 C 336.277 196.526 335.272 197.786 334.111 201.095 C 332.933 204.453 332.617 208.02 333.142 212.165 C 333.668 216.32 334.963 220.126 337.13 223.88 C 338.272 225.857 339.235 226.821 340.408 227.253 C 341.558 227.675 342.36 227.58 343.626 226.85 Z M 360.964 118.573 C 360.455 118.149 360.192 118.005 359.845 117.93 C 359.552 117.868 359.602 117.86 359.352 118.004 C 358.975 118.222 358.862 118.656 358.799 120.386 C 358.733 122.236 359.007 124.775 359.652 128.172 C 360.949 135.013 363.27 143.054 366.649 152.409 C 370.025 161.757 371.081 165.056 375.435 172.909 C 375.328 164.226 374.877 157.747 373.102 148.004 C 371.331 138.294 368.581 130.269 364.773 123.673 C 363.298 121.12 362.078 119.5 360.964 118.573 Z M 394.84 99.015 C 394.33 98.591 394.067 98.447 393.72 98.372 C 393.428 98.31 393.478 98.302 393.227 98.446 C 392.851 98.664 392.737 99.098 392.675 100.828 C 392.608 102.678 392.882 105.217 393.527 108.614 C 394.825 115.455 397.145 123.496 400.524 132.851 C 403.901 142.199 404.956 145.498 409.31 153.351 C 409.203 144.668 408.753 138.189 406.977 128.446 C 405.207 118.736 402.456 110.711 398.648 104.115 C 397.174 101.562 395.953 99.942 394.84 99.015 Z M 111.042 201.162 C 111.042 222.673 93.603 240.112 72.092 240.112 C 67.386 240.112 62.875 239.277 58.699 237.748 C 58.698 237.439 58.697 237.13 58.697 236.821 C 58.697 210.439 63.839 185.259 73.176 162.227 C 94.186 162.801 111.042 180.014 111.042 201.162 Z M 280.426 102.955 C 248.933 102.955 223.402 77.424 223.402 45.931 C 223.402 44.273 223.473 42.631 223.611 41.009 C 234.582 39.131 245.859 38.153 257.365 38.153 C 285.602 38.153 312.462 44.044 336.786 54.664 C 332.583 82.011 308.95 102.955 280.426 102.955 Z" style="fill: rgb(255, 255, 255);"/>
  <ellipse style="fill: rgb(255, 255, 255);" cx="188.76" cy="381.008" rx="9.246" ry="9.246"/>
</svg>