<svg viewBox="0 0 474 474" fill="none" xmlns="http://www.w3.org/2000/svg">
<circle cx="237" cy="237" r="237" fill="black"/>
<path d="M76.4905 331.85C72.0086 333.051 66.8436 334.021 60.9956 334.76C57.8011 335.202 55.4586 334.96 53.9682 334.034C52.4778 333.108 51.4372 331.234 50.8464 328.41C49.3374 320.615 48.0864 310.846 47.0932 299.103C46.0793 287.283 45.6043 275.773 45.6682 264.575C45.6915 262.499 46.411 260.856 47.8267 259.649C49.2424 258.441 51.2639 257.486 53.8912 256.782C58.6049 255.519 61.3138 256.201 62.0178 258.828C62.3077 259.91 62.4071 261.208 62.3162 262.723C61.9635 269.444 62.1802 278.289 62.9663 289.259C63.7317 300.152 64.9525 310.427 66.6285 320.082C69.0089 319.692 71.6673 319.104 74.6037 318.318C88.1266 314.694 97.1135 307.896 101.564 297.925C106.092 287.932 106.524 276.097 102.859 262.42C100.395 253.224 95.8629 246.819 89.2624 243.204C82.6619 239.589 74.5706 239.066 64.9887 241.633C58.8067 243.29 52.9223 245.902 47.3353 249.469C41.8255 253.016 37.061 257.026 33.0416 261.499C32.2234 262.463 31.2348 263.101 30.0756 263.411C28.762 263.763 27.5738 263.502 26.5112 262.627C25.4279 261.675 24.6688 260.388 24.234 258.765C23.7371 256.91 23.6424 255.321 23.95 253.996C24.2369 252.594 24.9799 251.194 26.1789 249.796C30.5377 244.735 36.0619 240.315 42.7514 236.535C49.4203 232.677 56.0775 229.858 62.723 228.078C72.1505 225.552 80.7481 225.029 88.5158 226.509C96.2628 227.911 102.84 231.284 108.247 236.627C113.654 241.969 117.558 249.122 119.96 258.086C123.087 269.754 123.502 280.576 121.205 290.55C118.887 300.447 113.927 308.982 106.325 316.154C98.7218 323.326 88.7771 328.558 76.4905 331.85ZM187.863 273.683C188.868 273.414 189.765 273.67 190.554 274.453C191.421 275.214 192.071 276.407 192.506 278.029C193.334 281.12 193.242 283.712 192.23 285.806C190.302 290.049 187.105 294.343 182.637 298.688C178.246 303.011 173.076 305.97 167.126 307.565C159.012 309.739 152.124 309.224 146.462 306.02C140.8 302.817 136.944 297.39 134.894 289.74C133.465 284.408 133.261 279.162 134.28 274.002C135.279 268.765 137.386 264.267 140.602 260.506C143.896 256.725 148.054 254.161 153.077 252.815C157.559 251.614 161.514 252.004 164.944 253.984C168.352 255.886 170.667 259.117 171.889 263.676C173.318 269.008 172.618 274.124 169.789 279.023C167.017 283.824 161.373 288.566 152.855 293.251C155.739 296.288 159.886 297.081 165.295 295.632C168.772 294.7 172.392 292.446 176.155 288.871C179.974 285.197 182.979 280.955 185.168 276.144C185.806 274.814 186.704 273.994 187.863 273.683ZM154.15 264.703C151.291 265.469 149.302 267.782 148.183 271.643C147.142 275.484 147.252 279.761 148.515 284.475L148.578 284.706C152.847 282.403 156.005 279.817 158.053 276.95C160.1 274.082 160.741 271.219 159.975 268.36C159.582 266.891 158.846 265.846 157.768 265.224C156.747 264.504 155.541 264.33 154.15 264.703ZM210.891 295.838C203.318 297.867 196.838 297.326 191.449 294.215C186.116 291.005 182.508 285.885 180.624 278.853C178.947 272.594 178.713 266.776 179.923 261.4C181.132 256.023 183.366 251.532 186.624 247.926C189.882 244.32 193.674 241.937 198.001 240.778C202.252 239.639 205.877 240.034 208.879 241.963C211.937 243.794 213.994 246.68 215.05 250.621C215.92 253.866 215.92 256.806 215.053 259.44C214.262 262.054 212.708 263.672 210.39 264.293C208.921 264.686 207.631 264.659 206.517 264.212C205.481 263.745 204.797 262.893 204.465 261.656C204.32 261.115 204.232 260.476 204.2 259.739C204.169 259.003 204.15 258.469 204.144 258.139C204.22 256.877 204.123 255.743 203.854 254.739C203.585 253.734 203.108 253.034 202.422 252.638C201.813 252.221 201.045 252.137 200.118 252.386C198.341 252.862 196.897 254.118 195.786 256.155C194.655 258.115 193.988 260.571 193.785 263.524C193.582 266.477 193.916 269.576 194.786 272.822C197.187 281.786 202.291 285.222 210.095 283.131C213.264 282.282 216.384 280.328 219.457 277.268C222.586 274.111 225.359 269.93 227.775 264.728C228.412 263.398 229.31 262.577 230.469 262.267C231.474 261.997 232.371 262.254 233.16 263.036C234.027 263.798 234.678 264.99 235.113 266.613C235.899 269.549 235.807 272.142 234.836 274.39C232.405 279.845 228.971 284.492 224.533 288.331C220.152 292.073 215.605 294.575 210.891 295.838ZM229.933 224.022C226.687 224.892 224.056 224.81 222.04 223.777C220.003 222.666 218.622 220.759 217.898 218.054C217.173 215.349 217.616 212.829 219.226 210.493C220.893 208.058 223.31 206.417 226.478 205.568C229.338 204.802 231.842 204.876 233.992 205.791C236.142 206.705 237.559 208.438 238.242 210.988C239.07 214.079 238.728 216.821 237.216 219.213C235.683 221.529 233.255 223.132 229.933 224.022ZM245.684 286.515C240.661 287.861 236.514 287.067 233.243 284.134C230.05 281.18 227.666 276.766 226.093 270.893C225.161 267.416 224.395 262.859 223.796 257.222C223.253 251.487 223.046 246.076 223.174 240.99C223.207 238.331 223.678 236.382 224.589 235.144C225.5 233.907 227.23 232.946 229.78 232.263C233.721 231.207 236.044 231.992 236.748 234.62C237.265 236.552 237.732 241.23 238.148 248.655C238.571 257.653 239.186 263.658 239.994 266.672C240.615 268.99 241.4 270.684 242.35 271.755C243.299 272.826 244.508 273.164 245.976 272.771C247.367 272.398 248.847 270.967 250.416 268.476C251.985 265.985 253.949 262.187 256.308 257.083C256.945 255.752 257.844 254.932 259.003 254.621C260.007 254.352 260.904 254.609 261.694 255.391C262.56 256.153 263.211 257.345 263.646 258.968C264.474 262.059 264.382 264.651 263.369 266.744C258.224 278.144 252.329 284.735 245.684 286.515ZM311.926 230.005C312.931 229.736 313.838 230.031 314.648 230.891C315.458 231.75 316.07 232.953 316.484 234.498C317.002 236.43 317.135 238.009 316.884 239.236C316.612 240.386 315.949 241.309 314.893 242.006C310.692 244.871 305.84 247.165 300.338 248.887C300.511 255.715 298.962 261.679 295.691 266.78C292.497 271.86 288.311 275.093 283.134 276.48C275.329 278.572 268.852 277.119 263.703 272.121C258.554 267.123 254.468 258.983 251.445 247.701C248.774 237.733 247.112 226.583 246.458 214.252C245.784 201.844 246.706 190.913 249.225 181.459C251.8 171.907 256.372 166.251 262.941 164.491C266.495 163.538 269.768 164.318 272.76 166.829C275.732 169.263 277.869 172.914 279.174 177.782C280.872 184.119 281.361 190.738 280.643 197.639C279.925 204.54 277.705 212.174 273.984 220.542C279.265 219.542 284.056 220.577 288.358 223.648C292.639 226.642 295.854 230.916 298.005 236.468C301.574 235.263 305.695 233.331 310.365 230.671C310.788 230.393 311.308 230.17 311.926 230.005ZM263.349 176.68C261.804 177.094 260.725 179.868 260.113 185.002C259.557 190.037 259.563 196.703 260.129 204.999C260.696 213.295 261.845 222.222 263.578 231.779C266.172 221.062 268.024 211.745 269.133 203.829C270.298 195.814 270.136 189.025 268.645 183.461C267.982 180.988 267.166 179.178 266.196 178.03C265.303 176.861 264.354 176.411 263.349 176.68ZM280.305 264.07C282.701 263.428 284.557 261.854 285.873 259.348C287.189 256.842 287.649 253.613 287.253 249.661C284.422 248.68 281.998 247.052 279.981 244.776C278.04 242.48 276.677 239.864 275.89 236.928C275.6 235.846 275.361 234.336 275.173 232.399L274.826 232.492C271.657 233.341 269.416 235.639 268.101 239.387C266.843 243.037 266.918 247.49 268.326 252.744C269.506 257.149 271.218 260.293 273.462 262.176C275.783 264.039 278.064 264.67 280.305 264.07ZM328.995 264.192C324.204 265.476 319.913 264.762 316.122 262.051C312.331 259.34 309.68 255.163 308.168 249.522C306.512 243.341 306.378 237.123 307.767 230.871C309.136 224.541 311.731 219.083 315.555 214.497C319.435 209.813 324.041 206.757 329.373 205.329C331.073 204.873 332.286 204.92 333.013 205.471C333.797 205.924 334.61 206.948 335.452 208.545C336.992 207.801 338.651 207.191 340.428 206.714C344.214 205.7 346.47 206.545 347.195 209.249C347.629 210.872 348.085 214.891 348.562 221.306C349.166 230.669 349.933 237.089 350.865 240.567C351.176 241.726 351.695 242.58 352.422 243.131C353.226 243.661 354.092 243.801 355.02 243.553C356.488 243.16 358.017 241.756 359.606 239.342C361.175 236.852 363.167 233.005 365.583 227.802C366.22 226.472 367.119 225.652 368.278 225.341C369.282 225.072 370.179 225.328 370.969 226.111C371.835 226.872 372.486 228.065 372.921 229.687C373.749 232.778 373.657 235.371 372.644 237.464C370.532 242.254 368.061 246.477 365.231 250.134C362.401 253.791 359.325 256.065 356.002 256.955C353.452 257.639 350.867 257.42 348.248 256.3C345.685 255.082 343.459 253.111 341.57 250.387C339.291 257.955 335.099 262.556 328.995 264.192ZM330.031 251.367C331.731 250.911 333.084 249.472 334.091 247.049C335.098 244.626 335.505 241.659 335.31 238.15L333.884 215.673C330.659 216.62 327.977 218.664 325.837 221.805C323.753 224.848 322.418 228.519 321.83 232.817C321.243 237.116 321.529 241.429 322.688 245.756C323.33 248.152 324.27 249.805 325.508 250.715C326.823 251.605 328.331 251.822 330.031 251.367ZM406.033 215.224C407.038 214.955 407.935 215.212 408.724 215.994C409.591 216.756 410.241 217.948 410.676 219.571C411.505 222.662 411.412 225.254 410.4 227.347C408.174 232.333 405.443 236.668 402.206 240.351C399.046 244.014 394.994 246.508 390.048 247.833C383.248 249.655 377.358 247.92 372.379 242.629C367.477 237.316 363.711 229.753 361.082 219.939C358.556 210.512 356.875 199.45 356.041 186.753C355.284 174.036 356.102 162.718 358.497 152.801C360.969 142.862 365.489 137.013 372.057 135.253C375.766 134.259 379.13 135.221 382.148 138.14C385.223 140.96 387.62 145.577 389.338 151.991C391.802 161.186 392.109 172.534 390.26 186.032C388.411 199.531 384.715 213.4 379.171 227.64C380.561 230.663 382.061 232.705 383.67 233.764C385.258 234.747 387.057 234.969 389.066 234.43C392.234 233.581 394.778 231.947 396.697 229.528C398.596 227.032 400.809 223.084 403.338 217.686C403.976 216.356 404.874 215.535 406.033 215.224ZM372.582 147.412C370.805 147.888 369.655 151.633 369.133 158.647C368.61 165.661 368.772 174.149 369.619 184.109C370.466 194.069 371.982 203.436 374.167 212.209C377.231 201.698 379.174 191.487 379.997 181.577C380.8 171.589 380.196 162.847 378.188 155.351C376.614 149.478 374.746 146.832 372.582 147.412ZM435.955 217.394C436.598 216.394 437.344 215.779 438.194 215.552C439.122 215.303 440.001 215.647 440.831 216.584C441.719 217.423 442.359 218.577 442.753 220.045C443.622 223.291 443.157 226.19 441.356 228.743C438.228 233.142 434.114 236.025 429.014 237.392C421.673 239.359 415.485 237.746 410.449 232.552C405.392 227.281 401.539 219.7 398.889 209.809C396.363 200.382 394.682 189.32 393.848 176.623C393.09 163.906 393.909 152.588 396.304 142.67C398.776 132.732 403.296 126.883 409.864 125.123C413.573 124.129 416.937 125.091 419.955 128.009C423.03 130.83 425.427 135.447 427.145 141.86C429.609 151.056 429.916 162.403 428.067 175.902C426.295 189.38 422.627 203.2 417.063 217.363C418.453 220.386 420.03 222.407 421.793 223.425C423.557 224.443 425.636 224.631 428.032 223.989C429.346 223.637 430.71 222.858 432.126 221.65C433.619 220.422 434.895 219.003 435.955 217.394ZM410.389 137.281C408.612 137.757 407.462 141.503 406.939 148.517C406.417 155.531 406.579 164.018 407.426 173.979C408.273 183.939 409.789 193.306 411.974 202.079C415.038 191.568 416.981 181.357 417.804 171.446C418.606 161.458 418.003 152.716 415.995 145.221C414.421 139.348 412.553 136.701 410.389 137.281Z" fill="white"/>
<path d="M60.9956 334.76L60.7449 332.776L60.7332 332.777L60.7215 332.779L60.9956 334.76ZM53.9682 334.034L52.9129 335.733L52.9129 335.733L53.9682 334.034ZM50.8464 328.41L48.8828 328.79L48.8857 328.805L48.8888 328.82L50.8464 328.41ZM47.0932 299.103L49.0861 298.935L49.0859 298.932L47.0932 299.103ZM45.6682 264.575L43.6683 264.553L43.6683 264.564L45.6682 264.575ZM62.3162 262.723L60.3198 262.604L60.3193 262.611L60.3189 262.619L62.3162 262.723ZM62.9663 289.259L64.9614 289.119L64.9612 289.116L62.9663 289.259ZM66.6285 320.082L64.658 320.424L64.9968 322.375L66.9514 322.056L66.6285 320.082ZM101.564 297.925L99.7426 297.099L99.738 297.11L101.564 297.925ZM89.2624 243.204L90.2231 241.45L90.2231 241.45L89.2624 243.204ZM47.3353 249.469L46.2589 247.784L46.2527 247.788L47.3353 249.469ZM33.0416 261.499L31.554 260.162L31.5349 260.183L31.5164 260.205L33.0416 261.499ZM26.5112 262.627L25.191 264.129L25.2152 264.151L25.2401 264.171L26.5112 262.627ZM23.95 253.996L25.8982 254.448L25.9042 254.423L25.9094 254.397L23.95 253.996ZM26.1789 249.796L24.6636 248.491L24.6609 248.494L26.1789 249.796ZM42.7514 236.535L43.7354 238.276L43.7441 238.271L43.7528 238.266L42.7514 236.535ZM88.5158 226.509L88.1415 228.473L88.1504 228.475L88.1594 228.477L88.5158 226.509ZM108.247 236.627L109.653 235.204L109.653 235.204L108.247 236.627ZM121.205 290.55L123.152 291.006L123.154 290.999L121.205 290.55ZM106.325 316.154L104.952 314.699L104.952 314.699L106.325 316.154ZM75.9729 329.918C71.5984 331.091 66.5257 332.045 60.7449 332.776L61.2462 336.744C67.1616 335.997 72.4188 335.012 77.0081 333.782L75.9729 329.918ZM60.7215 332.779C57.6478 333.204 55.8995 332.879 55.0236 332.335L52.9129 335.733C55.0177 337.04 57.9544 337.2 61.2696 336.741L60.7215 332.779ZM55.0236 332.335C54.2218 331.837 53.3519 330.619 52.8039 328.001L48.8888 328.82C49.5225 331.848 50.7338 334.379 52.9129 335.733L55.0236 332.335ZM52.8099 328.03C51.3193 320.33 50.0758 310.637 49.0861 298.935L45.1003 299.272C46.0969 311.055 47.3556 320.901 48.8828 328.79L52.8099 328.03ZM49.0859 298.932C48.0769 287.169 47.6047 275.721 47.6682 264.587L43.6683 264.564C43.604 275.826 44.0817 287.397 45.1005 299.274L49.0859 298.932ZM47.6681 264.598C47.6857 263.024 48.2025 261.957 49.1246 261.171L46.5288 258.127C44.6195 259.756 43.6973 261.974 43.6683 264.553L47.6681 264.598ZM49.1246 261.171C50.2341 260.224 51.9466 259.373 54.4089 258.713L53.3736 254.85C50.5812 255.598 48.2506 256.659 46.5288 258.127L49.1246 261.171ZM54.4089 258.713C56.6496 258.113 58.1086 258.068 58.9698 258.285C59.3668 258.385 59.5879 258.528 59.7216 258.658C59.853 258.785 59.9897 258.987 60.0859 259.346L63.9496 258.31C63.6938 257.356 63.228 256.486 62.5062 255.786C61.7866 255.089 60.904 254.648 59.9465 254.406C58.0988 253.941 55.8466 254.187 53.3736 254.85L54.4089 258.713ZM60.0859 259.346C60.3043 260.161 60.4021 261.232 60.3198 262.604L64.3126 262.843C64.4121 261.185 64.311 259.659 63.9496 258.31L60.0859 259.346ZM60.3189 262.619C59.9601 269.457 60.1826 278.394 60.9714 289.402L64.9612 289.116C64.1778 278.184 63.9669 269.431 64.3134 262.828L60.3189 262.619ZM60.9712 289.4C61.7409 300.353 62.9691 310.695 64.658 320.424L68.5991 319.74C66.9358 310.158 65.7226 299.952 64.9614 289.119L60.9712 289.4ZM66.9514 322.056C69.4116 321.653 72.1364 321.049 75.1213 320.249L74.086 316.386C71.1981 317.16 68.6062 317.732 66.3057 318.108L66.9514 322.056ZM75.1213 320.249C89.0484 316.518 98.6278 309.411 103.391 298.74L99.738 297.11C95.5992 306.382 87.2048 312.871 74.086 316.386L75.1213 320.249ZM103.386 298.75C108.155 288.227 108.54 275.895 104.791 261.902L100.927 262.937C104.508 276.3 104.03 287.638 99.7426 297.099L103.386 298.75ZM104.791 261.902C102.225 252.327 97.4222 245.393 90.2231 241.45L88.3017 244.958C94.3036 248.245 98.5649 254.121 100.927 262.937L104.791 261.902ZM90.2231 241.45C83.042 237.517 74.3873 237.044 64.471 239.701L65.5063 243.565C74.754 241.087 82.2817 241.661 88.3017 244.958L90.2231 241.45ZM64.471 239.701C58.0843 241.413 52.0122 244.11 46.2589 247.784L48.4116 251.155C53.8323 247.693 59.5291 245.167 65.5063 243.565L64.471 239.701ZM46.2527 247.788C40.6065 251.422 35.7026 255.545 31.554 260.162L34.5292 262.835C38.4194 258.506 43.0445 254.61 48.4178 251.151L46.2527 247.788ZM31.5164 260.205C30.9463 260.877 30.3023 261.28 29.558 261.48L30.5933 265.343C32.1672 264.921 33.5006 264.049 34.5669 262.792L31.5164 260.205ZM29.558 261.48C28.8771 261.662 28.3535 261.553 27.7824 261.083L25.2401 264.171C26.7942 265.451 28.6468 265.865 30.5933 265.343L29.558 261.48ZM27.8315 261.125C27.0912 260.474 26.5158 259.553 26.1659 258.247L22.3022 259.283C22.8219 261.222 23.7646 262.876 25.191 264.129L27.8315 261.125ZM26.1659 258.247C25.721 256.587 25.6891 255.349 25.8982 254.448L22.0019 253.544C21.5958 255.293 21.7532 257.234 22.3022 259.283L26.1659 258.247ZM25.9094 254.397C26.1114 253.41 26.6574 252.31 27.697 251.098L24.6609 248.494C23.3025 250.078 22.3625 251.778 21.9906 253.595L25.9094 254.397ZM27.6943 251.101C31.8816 246.24 37.217 241.96 43.7354 238.276L41.7675 234.794C34.9067 238.671 29.1938 243.231 24.6636 248.491L27.6943 251.101ZM43.7528 238.266C50.2878 234.486 56.7833 231.74 63.2407 230.009L62.2054 226.146C55.3716 227.977 48.5528 230.869 41.75 234.804L43.7528 238.266ZM63.2407 230.009C72.4438 227.544 80.7308 227.061 88.1415 228.473L88.8901 224.544C80.7653 222.996 71.8572 223.56 62.2054 226.146L63.2407 230.009ZM88.1594 228.477C95.5248 229.81 101.732 233.001 106.841 238.049L109.653 235.204C103.948 229.567 97.0009 226.012 88.8721 224.541L88.1594 228.477ZM106.841 238.049C111.945 243.092 115.698 249.907 118.028 258.604L121.892 257.568C119.418 248.337 115.363 240.846 109.653 235.204L106.841 238.049ZM118.028 258.604C121.085 270.013 121.467 280.499 119.256 290.101L123.154 290.999C125.536 280.653 125.088 269.496 121.892 257.568L118.028 258.604ZM119.258 290.094C117.032 299.598 112.278 307.788 104.952 314.699L107.697 317.609C115.577 310.175 120.743 301.297 123.152 291.006L119.258 290.094ZM104.952 314.699C97.6373 321.599 88.0082 326.694 75.9729 329.918L77.0081 333.782C89.5459 330.423 99.8062 325.053 107.697 317.609L104.952 314.699ZM190.554 274.453L189.146 275.873L189.189 275.915L189.234 275.955L190.554 274.453ZM192.23 285.806L190.429 284.935L190.419 284.957L190.409 284.979L192.23 285.806ZM182.637 298.688L181.242 297.254L181.233 297.263L182.637 298.688ZM146.462 306.02L147.447 304.28L147.447 304.28L146.462 306.02ZM134.28 274.002L136.242 274.39L136.245 274.377L134.28 274.002ZM140.602 260.506L139.094 259.192L139.088 259.199L139.082 259.206L140.602 260.506ZM164.944 253.984L163.944 255.716L163.956 255.723L163.969 255.73L164.944 253.984ZM169.789 279.023L168.057 278.023L168.057 278.023L169.789 279.023ZM152.855 293.251L151.891 291.498L149.619 292.748L151.404 294.628L152.855 293.251ZM176.155 288.871L177.533 290.321L177.542 290.312L176.155 288.871ZM185.168 276.144L183.365 275.28L183.356 275.298L183.348 275.316L185.168 276.144ZM148.183 271.643L146.262 271.087L146.257 271.103L146.253 271.12L148.183 271.643ZM148.578 284.706L146.646 285.224L147.301 287.668L149.527 286.467L148.578 284.706ZM158.053 276.95L156.425 275.788L156.425 275.788L158.053 276.95ZM157.768 265.224L156.616 266.858L156.69 266.911L156.768 266.956L157.768 265.224ZM188.381 275.615C188.643 275.545 188.82 275.55 189.146 275.873L191.962 273.032C190.71 271.791 189.093 271.283 187.345 271.751L188.381 275.615ZM189.234 275.955C189.697 276.362 190.198 277.141 190.574 278.547L194.438 277.512C193.945 275.673 193.144 274.066 191.874 272.95L189.234 275.955ZM190.574 278.547C191.325 281.349 191.166 283.412 190.429 284.935L194.03 286.677C195.319 284.013 195.344 280.892 194.438 277.512L190.574 278.547ZM190.409 284.979C188.613 288.933 185.588 293.028 181.242 297.254L184.031 300.122C188.621 295.658 191.992 291.166 194.051 286.633L190.409 284.979ZM181.233 297.263C177.089 301.344 172.224 304.128 166.608 305.633L167.643 309.497C173.928 307.813 179.403 304.679 184.04 300.113L181.233 297.263ZM166.608 305.633C158.847 307.712 152.531 307.156 147.447 304.28L145.477 307.761C151.717 311.292 159.177 311.765 167.643 309.497L166.608 305.633ZM147.447 304.28C142.35 301.396 138.769 296.474 136.826 289.222L132.962 290.257C135.119 298.305 139.25 304.237 145.477 307.761L147.447 304.28ZM136.826 289.222C135.472 284.17 135.285 279.234 136.242 274.39L132.318 273.615C131.236 279.089 131.458 284.645 132.962 290.257L136.826 289.222ZM136.245 274.377C137.183 269.454 139.15 265.282 142.122 261.806L139.082 259.206C135.622 263.251 133.374 268.076 132.315 273.628L136.245 274.377ZM142.11 261.82C145.133 258.35 148.941 255.994 153.594 254.747L152.559 250.883C147.167 252.328 142.659 255.1 139.094 259.192L142.11 261.82ZM153.594 254.747C157.659 253.658 161.052 254.046 163.944 255.716L165.944 252.252C161.976 249.961 157.459 249.571 152.559 250.883L153.594 254.747ZM163.969 255.73C166.809 257.316 168.844 260.04 169.957 264.194L173.821 263.159C172.491 258.195 169.895 254.457 165.918 252.237L163.969 255.73ZM169.957 264.194C171.245 269 170.628 273.57 168.057 278.023L171.521 280.023C174.608 274.677 175.391 269.017 173.821 263.159L169.957 264.194ZM168.057 278.023C165.559 282.35 160.299 286.874 151.891 291.498L153.818 295.003C162.446 290.258 168.476 285.298 171.521 280.023L168.057 278.023ZM151.404 294.628C154.963 298.375 159.97 299.129 165.813 297.564L164.777 293.7C159.802 295.033 156.515 294.2 154.305 291.873L151.404 294.628ZM165.813 297.564C169.723 296.516 173.628 294.031 177.533 290.321L174.777 287.421C171.157 290.862 167.821 292.885 164.777 293.7L165.813 297.564ZM177.542 290.312C181.542 286.464 184.694 282.014 186.989 276.973L183.348 275.316C181.263 279.896 178.406 283.93 174.769 287.429L177.542 290.312ZM186.972 277.009C187.42 276.073 187.913 275.74 188.381 275.615L187.345 271.751C185.495 272.247 184.191 273.555 183.365 275.28L186.972 277.009ZM153.632 262.771C149.864 263.78 147.498 266.823 146.262 271.087L150.104 272.2C151.106 268.741 152.718 267.157 154.668 266.634L153.632 262.771ZM146.253 271.12C145.1 275.37 145.25 280.014 146.584 284.992L150.447 283.957C149.255 279.508 149.183 275.597 150.113 272.167L146.253 271.12ZM146.584 284.992L146.646 285.224L150.509 284.189L150.447 283.957L146.584 284.992ZM149.527 286.467C153.97 284.07 157.402 281.303 159.681 278.112L156.425 275.788C154.609 278.331 151.724 280.736 147.628 282.946L149.527 286.467ZM159.681 278.112C162.002 274.861 162.858 271.39 161.907 267.842L158.043 268.877C158.625 271.047 158.199 273.304 156.425 275.788L159.681 278.112ZM161.907 267.842C161.409 265.982 160.403 264.436 158.768 263.492L156.768 266.956C157.289 267.256 157.755 267.801 158.043 268.877L161.907 267.842ZM158.921 263.589C157.338 262.473 155.499 262.271 153.632 262.771L154.668 266.634C155.583 266.389 156.156 266.534 156.616 266.858L158.921 263.589ZM191.449 294.215L190.417 295.928L190.433 295.938L190.449 295.947L191.449 294.215ZM179.923 261.4L181.874 261.839L181.874 261.839L179.923 261.4ZM186.624 247.926L185.14 246.585L185.14 246.585L186.624 247.926ZM208.879 241.963L207.798 243.645L207.824 243.663L207.851 243.679L208.879 241.963ZM215.053 259.44L213.153 258.815L213.145 258.838L213.138 258.861L215.053 259.44ZM206.517 264.212L205.694 266.035L205.733 266.053L205.772 266.068L206.517 264.212ZM204.144 258.139L202.148 258.02L202.143 258.096L202.145 258.173L204.144 258.139ZM202.422 252.638L201.292 254.288L201.355 254.331L201.422 254.37L202.422 252.638ZM195.786 256.155L197.518 257.155L197.53 257.134L197.542 257.113L195.786 256.155ZM193.785 263.524L191.79 263.387L191.79 263.387L193.785 263.524ZM219.457 277.268L220.868 278.685L220.877 278.676L219.457 277.268ZM227.775 264.728L225.971 263.864L225.966 263.875L225.961 263.886L227.775 264.728ZM233.16 263.036L231.753 264.457L231.795 264.499L231.84 264.539L233.16 263.036ZM234.836 274.39L236.663 275.204L236.667 275.193L236.672 275.183L234.836 274.39ZM224.533 288.331L225.832 289.852L225.842 289.844L224.533 288.331ZM210.374 293.906C203.173 295.835 197.266 295.264 192.449 292.483L190.449 295.947C196.409 299.388 203.464 299.898 211.409 297.77L210.374 293.906ZM192.48 292.501C187.666 289.604 184.33 284.958 182.556 278.335L178.692 279.37C180.686 286.811 184.567 292.407 190.417 295.928L192.48 292.501ZM182.556 278.335C180.948 272.334 180.747 266.848 181.874 261.839L177.972 260.96C176.679 266.704 176.946 272.854 178.692 279.37L182.556 278.335ZM181.874 261.839C183.018 256.752 185.11 252.585 188.108 249.267L185.14 246.585C181.622 250.479 179.247 255.294 177.972 260.96L181.874 261.839ZM188.108 249.267C191.13 245.922 194.596 243.761 198.519 242.71L197.484 238.846C192.752 240.114 188.633 242.719 185.14 246.585L188.108 249.267ZM198.519 242.71C202.362 241.68 205.377 242.09 207.798 243.645L209.96 240.28C206.377 237.978 202.141 237.598 197.484 238.846L198.519 242.71ZM207.851 243.679C210.399 245.204 212.175 247.621 213.118 251.138L216.982 250.103C215.812 245.739 213.475 242.384 209.906 240.247L207.851 243.679ZM213.118 251.138C213.908 254.088 213.875 256.622 213.153 258.815L216.952 260.066C217.966 256.99 217.931 253.644 216.982 250.103L213.118 251.138ZM213.138 258.861C212.515 260.921 211.42 261.946 209.872 262.361L210.907 266.225C213.996 265.397 216.009 263.187 216.967 260.019L213.138 258.861ZM209.872 262.361C208.709 262.672 207.878 262.603 207.262 262.356L205.772 266.068C207.383 266.715 209.134 266.7 210.907 266.225L209.872 262.361ZM207.34 262.389C206.923 262.201 206.595 261.878 206.397 261.139L202.534 262.174C202.998 263.907 204.038 265.288 205.694 266.035L207.34 262.389ZM206.397 261.139C206.3 260.775 206.226 260.287 206.198 259.653L202.202 259.826C202.238 260.665 202.341 261.456 202.534 262.174L206.397 261.139ZM206.198 259.653C206.167 258.918 206.149 258.407 206.144 258.106L202.145 258.173C202.151 258.531 202.17 259.087 202.202 259.826L206.198 259.653ZM206.141 258.259C206.227 256.827 206.121 255.473 205.786 254.221L201.922 255.256C202.125 256.014 202.213 256.927 202.148 258.02L206.141 258.259ZM205.786 254.221C205.424 252.871 204.697 251.642 203.422 250.906L201.422 254.37C201.518 254.425 201.746 254.597 201.922 255.256L205.786 254.221ZM203.552 250.988C202.325 250.148 200.91 250.103 199.6 250.454L200.636 254.317C200.916 254.242 201.086 254.241 201.172 254.25C201.244 254.258 201.272 254.275 201.292 254.288L203.552 250.988ZM199.6 250.454C197.164 251.106 195.33 252.813 194.03 255.198L197.542 257.113C198.463 255.423 199.517 254.617 200.636 254.317L199.6 250.454ZM194.054 255.155C192.731 257.447 192.007 260.22 191.79 263.387L195.78 263.661C195.968 260.922 196.578 258.782 197.518 257.155L194.054 255.155ZM191.79 263.387C191.57 266.588 191.935 269.909 192.854 273.34L196.717 272.304C195.897 269.244 195.595 266.366 195.78 263.661L191.79 263.387ZM192.854 273.34C194.118 278.059 196.185 281.685 199.297 283.781C202.468 285.916 206.338 286.208 210.613 285.063L209.578 281.199C206.048 282.145 203.464 281.764 201.531 280.463C199.541 279.123 197.855 276.549 196.717 272.304L192.854 273.34ZM210.613 285.063C214.211 284.099 217.625 281.915 220.868 278.685L218.046 275.851C215.143 278.741 212.316 280.465 209.578 281.199L210.613 285.063ZM220.877 278.676C224.209 275.314 227.102 270.925 229.589 265.57L225.961 263.886C223.616 268.936 220.963 272.907 218.036 275.86L220.877 278.676ZM229.578 265.592C230.026 264.657 230.519 264.324 230.987 264.198L229.952 260.335C228.102 260.831 226.798 262.138 225.971 263.864L229.578 265.592ZM230.987 264.198C231.249 264.128 231.426 264.133 231.753 264.457L234.568 261.616C233.316 260.375 231.699 259.867 229.952 260.335L230.987 264.198ZM231.84 264.539C232.304 264.946 232.804 265.724 233.181 267.131L237.044 266.095C236.552 264.256 235.751 262.65 234.481 261.534L231.84 264.539ZM233.181 267.131C233.88 269.739 233.753 271.854 233 273.596L236.672 275.183C237.862 272.429 237.919 269.359 237.044 266.095L233.181 267.131ZM233.009 273.575C230.695 278.767 227.436 283.175 223.225 286.819L225.842 289.844C230.505 285.809 234.115 280.922 236.663 275.204L233.009 273.575ZM223.234 286.81C219.039 290.393 214.752 292.733 210.374 293.906L211.409 297.77C216.458 296.417 221.265 293.752 225.832 289.852L223.234 286.81ZM222.04 223.777L221.083 225.533L221.105 225.545L221.128 225.557L222.04 223.777ZM219.226 210.493L220.873 211.627L220.876 211.622L219.226 210.493ZM233.992 205.791L233.209 207.631L233.992 205.791ZM237.216 219.213L238.884 220.317L238.895 220.3L238.907 220.282L237.216 219.213ZM233.243 284.134L231.885 285.602L231.897 285.612L231.908 285.623L233.243 284.134ZM223.796 257.222L221.805 257.41L221.806 257.422L221.807 257.433L223.796 257.222ZM223.174 240.99L225.173 241.04L225.173 241.027L225.174 241.015L223.174 240.99ZM238.148 248.655L240.146 248.562L240.145 248.553L240.145 248.544L238.148 248.655ZM250.416 268.476L248.724 267.41L248.724 267.41L250.416 268.476ZM256.308 257.083L254.504 256.218L254.498 256.231L254.492 256.243L256.308 257.083ZM261.694 255.391L260.286 256.811L260.328 256.854L260.373 256.893L261.694 255.391ZM263.369 266.744L261.569 265.873L261.557 265.897L261.546 265.921L263.369 266.744ZM229.415 222.091C226.422 222.893 224.356 222.716 222.952 221.997L221.128 225.557C223.757 226.904 226.952 226.892 230.45 225.954L229.415 222.091ZM222.998 222.021C221.539 221.225 220.444 219.83 219.83 217.536L215.966 218.572C216.801 221.687 218.468 224.107 221.083 225.533L222.998 222.021ZM219.83 217.536C219.259 215.406 219.59 213.489 220.873 211.627L217.579 209.358C215.642 212.169 215.087 215.292 215.966 218.572L219.83 217.536ZM220.876 211.622C222.243 209.627 224.234 208.24 226.996 207.499L225.961 203.636C222.387 204.593 219.543 206.49 217.576 209.363L220.876 211.622ZM226.996 207.499C229.541 206.818 231.569 206.933 233.209 207.631L234.775 203.95C232.115 202.818 229.134 202.785 225.961 203.636L226.996 207.499ZM233.209 207.631C234.715 208.271 235.763 209.462 236.31 211.505L240.174 210.47C239.355 207.414 237.57 205.139 234.775 203.95L233.209 207.631ZM236.31 211.505C237.015 214.135 236.699 216.288 235.525 218.145L238.907 220.282C240.758 217.353 241.126 214.022 240.174 210.47L236.31 211.505ZM235.548 218.109C234.345 219.927 232.383 221.295 229.415 222.091L230.45 225.954C234.127 224.969 237.021 223.131 238.884 220.317L235.548 218.109ZM245.166 284.583C240.657 285.791 237.248 285.039 234.579 282.645L231.908 285.623C235.78 289.096 240.664 289.931 246.201 288.447L245.166 284.583ZM234.601 282.666C231.775 280.051 229.538 276.023 228.025 270.376L224.161 271.411C225.795 277.509 228.325 282.309 231.885 285.602L234.601 282.666ZM228.025 270.376C227.131 267.039 226.379 262.596 225.785 257.01L221.807 257.433C222.412 263.122 223.192 267.793 224.161 271.411L228.025 270.376ZM225.787 257.033C225.251 251.368 225.047 246.037 225.173 241.04L221.174 240.94C221.044 246.115 221.256 251.606 221.805 257.41L225.787 257.033ZM225.174 241.015C225.205 238.502 225.66 237.063 226.2 236.33L222.978 233.959C221.697 235.701 221.209 238.16 221.174 240.965L225.174 241.015ZM226.2 236.33C226.707 235.64 227.901 234.837 230.298 234.195L229.262 230.331C226.559 231.055 224.292 232.173 222.978 233.959L226.2 236.33ZM230.298 234.195C232.115 233.708 233.223 233.747 233.837 233.954C234.287 234.107 234.614 234.386 234.816 235.137L238.679 234.102C238.177 232.226 236.991 230.799 235.119 230.165C233.409 229.587 231.387 229.762 229.262 230.331L230.298 234.195ZM234.816 235.137C235.268 236.827 235.731 241.274 236.151 248.767L240.145 248.544C239.733 241.186 239.262 236.276 238.679 234.102L234.816 235.137ZM236.15 248.749C236.572 257.716 237.19 263.935 238.062 267.189L241.926 266.154C241.183 263.381 240.57 257.589 240.146 248.562L236.15 248.749ZM238.062 267.189C238.716 269.63 239.603 271.672 240.853 273.082L243.846 270.428C243.197 269.696 242.514 268.35 241.926 266.154L238.062 267.189ZM240.853 273.082C241.546 273.863 242.405 274.451 243.429 274.738C244.445 275.023 245.486 274.973 246.494 274.703L245.459 270.839C244.998 270.963 244.701 270.94 244.508 270.886C244.323 270.835 244.103 270.717 243.846 270.428L240.853 273.082ZM246.494 274.703C248.677 274.118 250.509 272.081 252.108 269.542L248.724 267.41C247.185 269.852 246.057 270.679 245.459 270.839L246.494 274.703ZM252.108 269.542C253.747 266.939 255.754 263.048 258.123 257.922L254.492 256.243C252.143 261.327 250.222 265.03 248.724 267.41L252.108 269.542ZM258.112 257.947C258.56 257.011 259.052 256.678 259.52 256.553L258.485 252.689C256.635 253.185 255.331 254.493 254.504 256.218L258.112 257.947ZM259.52 256.553C259.782 256.483 259.959 256.488 260.286 256.811L263.101 253.97C261.849 252.729 260.232 252.221 258.485 252.689L259.52 256.553ZM260.373 256.893C260.837 257.301 261.337 258.079 261.714 259.485L265.578 258.45C265.085 256.611 264.284 255.005 263.014 253.889L260.373 256.893ZM261.714 259.485C262.465 262.287 262.305 264.351 261.569 265.873L265.169 267.615C266.458 264.951 266.483 261.83 265.578 258.45L261.714 259.485ZM261.546 265.921C256.459 277.194 250.9 283.047 245.166 284.583L246.201 288.447C253.759 286.422 259.99 279.094 265.192 267.567L261.546 265.921ZM314.648 230.891L313.192 232.262L313.192 232.262L314.648 230.891ZM316.884 239.236L318.831 239.696L318.838 239.667L318.844 239.637L316.884 239.236ZM314.893 242.006L313.791 240.337L313.779 240.345L313.766 240.353L314.893 242.006ZM300.338 248.887L299.741 246.979L298.301 247.43L298.339 248.938L300.338 248.887ZM295.691 266.78L294.007 265.7L294.003 265.708L293.998 265.715L295.691 266.78ZM263.703 272.121L265.096 270.686L265.096 270.686L263.703 272.121ZM246.458 214.252L248.455 214.146L248.455 214.144L246.458 214.252ZM249.225 181.459L247.294 180.938L247.292 180.944L249.225 181.459ZM272.76 166.829L271.475 168.361L271.484 168.369L271.493 168.376L272.76 166.829ZM280.643 197.639L282.632 197.846L282.632 197.846L280.643 197.639ZM273.984 220.542L272.157 219.73L270.605 223.218L274.357 222.507L273.984 220.542ZM288.358 223.648L287.196 225.276L287.203 225.281L287.211 225.287L288.358 223.648ZM298.005 236.468L296.139 237.19L296.831 238.975L298.644 238.363L298.005 236.468ZM310.365 230.671L311.355 232.409L311.412 232.377L311.467 232.34L310.365 230.671ZM260.113 185.002L258.127 184.765L258.126 184.773L258.125 184.782L260.113 185.002ZM260.129 204.999L258.134 205.135L258.134 205.135L260.129 204.999ZM263.578 231.779L261.61 232.135L265.522 232.249L263.578 231.779ZM269.133 203.829L267.154 203.541L267.152 203.551L269.133 203.829ZM266.196 178.03L264.606 179.244L264.636 179.283L264.668 179.321L266.196 178.03ZM285.873 259.348L284.102 258.418L284.102 258.418L285.873 259.348ZM287.253 249.661L289.243 249.461L289.115 248.189L287.907 247.771L287.253 249.661ZM279.981 244.776L278.453 246.067L278.468 246.085L278.484 246.103L279.981 244.776ZM275.173 232.399L277.164 232.206L276.936 229.856L274.656 230.467L275.173 232.399ZM268.101 239.387L266.214 238.725L266.21 238.735L268.101 239.387ZM273.462 262.176L272.176 263.708L272.193 263.722L272.21 263.736L273.462 262.176ZM312.444 231.937C312.607 231.893 312.688 231.909 312.741 231.926C312.809 231.948 312.963 232.019 313.192 232.262L316.104 229.519C314.872 228.212 313.234 227.584 311.408 228.073L312.444 231.937ZM313.192 232.262C313.709 232.811 314.195 233.682 314.552 235.016L318.416 233.981C317.945 232.224 317.207 230.69 316.104 229.519L313.192 232.262ZM314.552 235.016C315.033 236.808 315.087 238.041 314.925 238.835L318.844 239.637C319.183 237.977 318.971 236.052 318.416 233.981L314.552 235.016ZM314.938 238.776C314.792 239.392 314.455 239.899 313.791 240.337L315.995 243.675C317.443 242.719 318.433 241.379 318.831 239.696L314.938 238.776ZM313.766 240.353C309.748 243.094 305.079 245.307 299.741 246.979L300.936 250.796C306.601 249.022 311.635 246.648 316.02 243.658L313.766 240.353ZM298.339 248.938C298.503 255.419 297.036 260.978 294.007 265.7L297.374 267.86C300.889 262.381 302.52 256.012 302.338 248.837L298.339 248.938ZM293.998 265.715C291.038 270.423 287.247 273.308 282.616 274.549L283.651 278.412C289.375 276.879 293.956 273.296 297.384 267.844L293.998 265.715ZM282.616 274.549C275.389 276.485 269.668 275.123 265.096 270.686L262.31 273.556C268.036 279.114 275.269 280.658 283.651 278.412L282.616 274.549ZM265.096 270.686C260.322 266.051 256.359 258.314 253.377 247.184L249.514 248.219C252.577 259.653 256.787 268.195 262.31 273.556L265.096 270.686ZM253.377 247.184C250.749 237.373 249.103 226.365 248.455 214.146L244.461 214.358C245.121 226.802 246.8 238.093 249.514 248.219L253.377 247.184ZM248.455 214.144C247.789 201.892 248.705 191.178 251.158 181.974L247.292 180.944C244.707 190.648 243.778 201.797 244.461 214.361L248.455 214.144ZM251.156 181.98C253.639 172.772 257.866 167.921 263.458 166.423L262.423 162.559C254.879 164.58 249.962 171.042 247.294 180.938L251.156 181.98ZM263.458 166.423C266.338 165.651 268.946 166.239 271.475 168.361L274.046 165.297C270.591 162.397 266.652 161.426 262.423 162.559L263.458 166.423ZM271.493 168.376C274.053 170.473 276.012 173.71 277.242 178.3L281.106 177.265C279.727 172.118 277.41 168.053 274.028 165.282L271.493 168.376ZM277.242 178.3C278.873 184.387 279.348 190.759 278.654 197.432L282.632 197.846C283.375 190.716 282.87 183.851 281.106 177.265L277.242 178.3ZM278.654 197.432C277.963 204.069 275.818 211.496 272.157 219.73L275.812 221.355C279.592 212.852 281.887 205.011 282.632 197.846L278.654 197.432ZM274.357 222.507C279.112 221.606 283.347 222.528 287.196 225.276L289.52 222.02C284.766 218.626 279.418 217.477 273.612 218.577L274.357 222.507ZM287.211 225.287C291.123 228.023 294.112 231.955 296.139 237.19L299.87 235.746C297.596 229.877 294.154 225.262 289.504 222.009L287.211 225.287ZM298.644 238.363C302.375 237.104 306.616 235.108 311.355 232.409L309.376 228.933C304.773 231.554 300.774 233.422 297.365 234.573L298.644 238.363ZM311.467 232.34C311.67 232.207 311.981 232.061 312.444 231.937L311.408 228.073C310.635 228.28 309.905 228.579 309.263 229.002L311.467 232.34ZM262.832 174.749C261.074 175.22 260.1 176.848 259.517 178.346C258.888 179.964 258.441 182.134 258.127 184.765L262.099 185.238C262.397 182.736 262.796 180.952 263.245 179.796C263.741 178.521 264.08 178.555 263.867 178.612L262.832 174.749ZM258.125 184.782C257.551 189.986 257.564 196.785 258.134 205.135L262.124 204.863C261.562 196.62 261.564 190.088 262.101 185.221L258.125 184.782ZM258.134 205.135C258.706 213.516 259.866 222.517 261.61 232.135L265.546 231.422C263.824 221.926 262.685 213.074 262.124 204.863L258.134 205.135ZM265.522 232.249C268.126 221.491 269.993 212.107 271.114 204.106L267.152 203.551C266.055 211.384 264.218 220.633 261.634 231.308L265.522 232.249ZM271.112 204.116C272.302 195.934 272.16 188.853 270.577 182.943L266.713 183.979C268.111 189.196 268.295 195.693 267.154 203.541L271.112 204.116ZM270.577 182.943C269.884 180.359 268.973 178.217 267.723 176.739L264.668 179.321C265.359 180.138 266.08 181.617 266.713 183.979L270.577 182.943ZM267.785 176.816C266.641 175.319 264.943 174.183 262.832 174.749L263.867 178.612C263.887 178.607 263.899 178.605 263.903 178.605C263.906 178.605 263.907 178.605 263.908 178.605C263.908 178.605 263.908 178.605 263.908 178.605C263.908 178.605 263.908 178.605 263.908 178.605C263.908 178.605 263.908 178.605 263.909 178.605C263.909 178.605 263.909 178.605 263.91 178.605C263.91 178.605 263.913 178.606 263.916 178.607C263.922 178.608 263.936 178.613 263.958 178.623C264.052 178.668 264.28 178.817 264.606 179.244L267.785 176.816ZM280.823 266.001C283.836 265.194 286.108 263.201 287.643 260.278L284.102 258.418C283.005 260.507 281.565 261.661 279.788 262.138L280.823 266.001ZM287.643 260.278C289.202 257.311 289.663 253.652 289.243 249.461L285.263 249.86C285.635 253.573 285.176 256.372 284.102 258.418L287.643 260.278ZM287.907 247.771C285.406 246.904 283.271 245.472 281.477 243.449L278.484 246.103C280.726 248.631 283.438 250.455 286.598 251.55L287.907 247.771ZM281.508 243.485C279.76 241.417 278.533 239.065 277.822 236.41L273.958 237.445C274.82 240.663 276.32 243.544 278.453 246.067L281.508 243.485ZM277.822 236.41C277.574 235.484 277.348 234.101 277.164 232.206L273.183 232.592C273.375 234.571 273.626 236.207 273.958 237.445L277.822 236.41ZM274.656 230.467L274.308 230.56L275.343 234.424L275.691 234.331L274.656 230.467ZM274.308 230.56C270.362 231.617 267.695 234.504 266.214 238.725L269.988 240.049C271.137 236.775 272.953 235.064 275.343 234.424L274.308 230.56ZM266.21 238.735C264.779 242.888 264.923 247.774 266.394 253.262L270.258 252.227C268.912 247.206 268.907 243.187 269.992 240.039L266.21 238.735ZM266.394 253.262C267.625 257.858 269.487 261.451 272.176 263.708L274.748 260.644C272.949 259.134 271.387 256.44 270.258 252.227L266.394 253.262ZM272.21 263.736C274.873 265.873 277.797 266.812 280.823 266.001L279.788 262.138C278.332 262.528 276.693 262.205 274.714 260.616L272.21 263.736ZM316.122 262.051L317.285 260.424L317.285 260.424L316.122 262.051ZM307.767 230.871L309.72 231.304L309.722 231.293L307.767 230.871ZM315.555 214.497L317.091 215.778L317.095 215.773L315.555 214.497ZM333.013 205.471L331.806 207.066L331.906 207.141L332.013 207.203L333.013 205.471ZM335.452 208.545L333.683 209.477L334.584 211.185L336.322 210.345L335.452 208.545ZM348.562 221.306L350.558 221.178L350.557 221.168L350.556 221.158L348.562 221.306ZM352.422 243.131L351.215 244.726L351.267 244.765L351.322 244.801L352.422 243.131ZM359.606 239.342L361.277 240.442L361.288 240.425L361.299 240.408L359.606 239.342ZM365.583 227.802L363.779 226.938L363.774 226.949L363.769 226.96L365.583 227.802ZM370.969 226.111L369.561 227.531L369.603 227.573L369.648 227.613L370.969 226.111ZM372.644 237.464L370.844 236.593L370.829 236.625L370.814 236.657L372.644 237.464ZM365.231 250.134L366.813 251.358L366.813 251.358L365.231 250.134ZM348.248 256.3L347.389 258.106L347.425 258.123L347.462 258.139L348.248 256.3ZM341.57 250.387L343.213 249.247L340.851 245.84L339.655 249.81L341.57 250.387ZM334.091 247.049L332.244 246.281L332.244 246.281L334.091 247.049ZM335.31 238.15L337.307 238.039L337.306 238.031L337.306 238.024L335.31 238.15ZM333.884 215.673L335.88 215.547L335.721 213.049L333.32 213.754L333.884 215.673ZM325.837 221.805L327.487 222.935L327.489 222.931L325.837 221.805ZM321.83 232.817L323.812 233.088L323.812 233.088L321.83 232.817ZM325.508 250.715L324.323 252.326L324.354 252.35L324.387 252.372L325.508 250.715ZM328.477 262.26C324.221 263.401 320.555 262.762 317.285 260.424L314.958 263.678C319.271 266.762 324.186 267.551 329.512 266.124L328.477 262.26ZM317.285 260.424C313.959 258.045 311.523 254.314 310.1 249.005L306.236 250.04C307.837 256.012 310.703 260.634 314.958 263.678L317.285 260.424ZM310.1 249.005C308.527 243.134 308.4 237.243 309.72 231.304L305.815 230.437C304.356 237.003 304.497 243.547 306.236 250.04L310.1 249.005ZM309.722 231.293C311.028 225.252 313.492 220.095 317.091 215.778L314.019 213.216C309.971 218.071 307.243 223.83 305.812 230.448L309.722 231.293ZM317.095 215.773C320.739 211.375 325 208.571 329.89 207.26L328.855 203.397C323.082 204.944 318.131 208.252 314.015 213.221L317.095 215.773ZM329.89 207.26C330.625 207.063 331.142 207.008 331.48 207.021C331.811 207.034 331.861 207.107 331.806 207.066L334.221 203.876C332.696 202.722 330.642 202.918 328.855 203.397L329.89 207.26ZM332.013 207.203C332.279 207.357 332.873 207.942 333.683 209.477L337.221 207.612C336.347 205.955 335.315 204.491 334.013 203.739L332.013 207.203ZM336.322 210.345C337.741 209.66 339.28 209.092 340.946 208.646L339.91 204.783C338.021 205.289 336.243 205.941 334.582 206.744L336.322 210.345ZM340.946 208.646C342.667 208.185 343.697 208.25 344.258 208.46C344.676 208.617 345.036 208.923 345.263 209.767L349.126 208.732C348.628 206.872 347.498 205.403 345.661 204.714C343.967 204.08 341.975 204.229 339.91 204.783L340.946 208.646ZM345.263 209.767C345.638 211.168 346.086 214.974 346.567 221.455L350.556 221.158C350.085 214.808 349.621 210.576 349.126 208.732L345.263 209.767ZM346.566 221.435C347.169 230.785 347.944 237.391 348.933 241.084L352.797 240.049C351.923 236.787 351.162 230.553 350.558 221.178L346.566 221.435ZM348.933 241.084C349.323 242.537 350.035 243.833 351.215 244.726L353.629 241.536C353.354 241.328 353.029 240.914 352.797 240.049L348.933 241.084ZM351.322 244.801C352.602 245.644 354.056 245.882 355.537 245.485L354.502 241.621C354.129 241.721 353.851 241.678 353.522 241.461L351.322 244.801ZM355.537 245.485C357.752 244.891 359.63 242.942 361.277 240.442L357.936 238.242C356.403 240.57 355.224 241.428 354.502 241.621L355.537 245.485ZM361.299 240.408C362.937 237.807 364.972 233.866 367.397 228.645L363.769 226.96C361.362 232.143 359.413 235.896 357.914 238.277L361.299 240.408ZM367.387 228.667C367.835 227.731 368.327 227.398 368.795 227.273L367.76 223.409C365.91 223.905 364.606 225.213 363.779 226.938L367.387 228.667ZM368.795 227.273C369.057 227.203 369.234 227.208 369.561 227.531L372.377 224.69C371.124 223.449 369.508 222.941 367.76 223.409L368.795 227.273ZM369.648 227.613C370.112 228.02 370.612 228.799 370.989 230.205L374.853 229.17C374.36 227.331 373.559 225.724 372.289 224.608L369.648 227.613ZM370.989 230.205C371.74 233.007 371.58 235.07 370.844 236.593L374.445 238.335C375.733 235.671 375.759 232.55 374.853 229.17L370.989 230.205ZM370.814 236.657C368.759 241.318 366.368 245.397 363.649 248.91L366.813 251.358C369.754 247.557 372.305 243.19 374.474 238.271L370.814 236.657ZM363.649 248.91C360.996 252.34 358.26 254.28 355.484 255.024L356.52 258.887C360.39 257.85 363.807 255.243 366.813 251.358L363.649 248.91ZM355.484 255.024C353.402 255.581 351.277 255.42 349.035 254.461L347.462 258.139C350.458 259.42 353.502 259.696 356.52 258.887L355.484 255.024ZM349.107 254.494C346.909 253.449 344.938 251.733 343.213 249.247L339.927 251.527C341.981 254.489 344.462 256.715 347.389 258.106L349.107 254.494ZM339.655 249.81C337.518 256.906 333.74 260.85 328.477 262.26L329.512 266.124C336.458 264.263 341.064 259.004 343.485 250.964L339.655 249.81ZM330.548 253.299C333.098 252.616 334.814 250.522 335.938 247.816L332.244 246.281C331.355 248.422 330.363 249.207 329.513 249.435L330.548 253.299ZM335.938 247.816C337.093 245.038 337.513 241.752 337.307 238.039L333.313 238.261C333.496 241.567 333.104 244.213 332.244 246.281L335.938 247.816ZM337.306 238.024L335.88 215.547L331.888 215.8L333.314 238.277L337.306 238.024ZM333.32 213.754C329.594 214.849 326.548 217.209 324.184 220.679L327.489 222.931C329.405 220.12 331.724 218.392 334.447 217.592L333.32 213.754ZM324.186 220.675C321.899 224.016 320.471 227.994 319.849 232.546L323.812 233.088C324.365 229.044 325.608 225.68 327.487 222.935L324.186 220.675ZM319.849 232.546C319.224 237.117 319.53 241.698 320.756 246.274L324.62 245.238C323.527 241.159 323.261 237.114 323.812 233.088L319.849 232.546ZM320.756 246.274C321.449 248.858 322.554 251.025 324.323 252.326L326.693 249.104C325.986 248.584 325.211 247.446 324.62 245.238L320.756 246.274ZM324.387 252.372C326.238 253.624 328.356 253.886 330.548 253.299L329.513 249.435C328.305 249.759 327.408 249.586 326.629 249.059L324.387 252.372ZM408.724 215.994L407.316 217.415L407.359 217.457L407.404 217.497L408.724 215.994ZM410.4 227.347L408.599 226.477L408.586 226.504L408.573 226.532L410.4 227.347ZM402.206 240.351L400.704 239.031L400.698 239.038L400.692 239.045L402.206 240.351ZM372.379 242.629L370.909 243.985L370.916 243.992L370.923 243.999L372.379 242.629ZM356.041 186.753L354.044 186.872L354.045 186.884L356.041 186.753ZM358.497 152.801L356.556 152.318L356.553 152.331L358.497 152.801ZM382.148 138.14L380.758 139.578L380.777 139.596L380.796 139.614L382.148 138.14ZM390.26 186.032L388.279 185.761L388.279 185.761L390.26 186.032ZM379.171 227.64L377.307 226.914L377 227.705L377.354 228.475L379.171 227.64ZM383.67 233.764L382.57 235.435L382.593 235.45L382.618 235.465L383.67 233.764ZM396.697 229.528L398.264 230.771L398.277 230.755L398.289 230.739L396.697 229.528ZM403.338 217.686L401.535 216.822L401.531 216.829L401.527 216.837L403.338 217.686ZM369.133 158.647L367.138 158.499L367.138 158.499L369.133 158.647ZM369.619 184.109L367.626 184.278L367.626 184.278L369.619 184.109ZM374.167 212.209L372.226 212.693L374.015 219.876L376.087 212.769L374.167 212.209ZM379.997 181.577L381.99 181.742L381.991 181.737L379.997 181.577ZM406.551 217.156C406.813 217.086 406.99 217.091 407.316 217.415L410.132 214.574C408.88 213.333 407.263 212.824 405.516 213.293L406.551 217.156ZM407.404 217.497C407.867 217.904 408.368 218.682 408.744 220.088L412.608 219.053C412.115 217.214 411.314 215.608 410.044 214.492L407.404 217.497ZM408.744 220.088C409.495 222.89 409.336 224.954 408.599 226.477L412.2 228.218C413.489 225.554 413.514 222.433 412.608 219.053L408.744 220.088ZM408.573 226.532C406.421 231.355 403.794 235.515 400.704 239.031L403.708 241.671C407.092 237.821 409.928 233.312 412.226 228.163L408.573 226.532ZM400.692 239.045C397.81 242.385 394.112 244.673 389.53 245.901L390.566 249.765C395.875 248.342 400.283 245.642 403.72 241.658L400.692 239.045ZM389.53 245.901C386.433 246.731 383.639 246.729 381.096 245.98C378.549 245.23 376.127 243.693 373.836 241.258L370.923 243.999C373.611 246.856 376.623 248.832 379.966 249.817C383.313 250.803 386.864 250.757 390.566 249.765L389.53 245.901ZM373.849 241.272C369.237 236.275 365.591 229.042 363.014 219.422L359.15 220.457C361.831 230.464 365.717 238.358 370.909 243.985L373.849 241.272ZM363.014 219.422C360.53 210.152 358.865 199.225 358.037 186.622L354.045 186.884C354.886 199.675 356.582 210.872 359.15 220.457L363.014 219.422ZM358.037 186.634C357.289 174.068 358.103 162.955 360.441 153.27L356.553 152.331C354.102 162.482 353.278 174.004 354.044 186.872L358.037 186.634ZM360.438 153.283C362.831 143.66 367.027 138.671 372.575 137.185L371.54 133.321C363.951 135.355 359.106 142.064 356.556 152.318L360.438 153.283ZM372.575 137.185C375.533 136.392 378.188 137.093 380.758 139.578L383.539 136.702C380.072 133.35 376 132.126 371.54 133.321L372.575 137.185ZM380.796 139.614C383.471 142.066 385.733 146.264 387.406 152.508L391.27 151.473C389.506 144.89 386.976 139.854 383.5 136.666L380.796 139.614ZM387.406 152.508C389.778 161.361 390.106 172.421 388.279 185.761L392.242 186.304C394.113 172.646 393.826 161.011 391.27 151.473L387.406 152.508ZM388.279 185.761C386.453 199.086 382.801 212.803 377.307 226.914L381.035 228.365C386.628 213.997 390.369 199.975 392.242 186.304L388.279 185.761ZM377.354 228.475C378.8 231.621 380.495 234.069 382.57 235.435L384.77 232.094C383.626 231.341 382.322 229.705 380.988 226.805L377.354 228.475ZM382.618 235.465C384.731 236.772 387.109 237.025 389.583 236.362L388.548 232.499C387.005 232.912 385.785 232.721 384.722 232.063L382.618 235.465ZM389.583 236.362C393.139 235.41 396.061 233.548 398.264 230.771L395.13 228.285C393.495 230.347 391.329 231.753 388.548 232.499L389.583 236.362ZM398.289 230.739C400.319 228.07 402.604 223.968 405.149 218.534L401.527 216.837C399.015 222.2 396.873 225.993 395.105 228.318L398.289 230.739ZM405.142 218.55C405.59 217.615 406.083 217.282 406.551 217.156L405.516 213.293C403.665 213.788 402.361 215.096 401.535 216.822L405.142 218.55ZM372.064 145.48C371.011 145.762 370.253 146.478 369.723 147.242C369.195 148.003 368.794 148.949 368.475 149.991C367.835 152.076 367.403 154.94 367.138 158.499L371.127 158.796C371.384 155.34 371.789 152.824 372.299 151.165C372.554 150.333 372.806 149.816 373.01 149.521C373.212 149.23 373.265 149.299 373.1 149.343L372.064 145.48ZM367.138 158.499C366.605 165.653 366.774 174.253 367.626 184.278L371.612 183.939C370.771 174.045 370.615 165.67 371.127 158.796L367.138 158.499ZM367.626 184.278C368.481 194.333 370.013 203.806 372.226 212.693L376.108 211.726C373.951 203.066 372.451 193.805 371.612 183.939L367.626 184.278ZM376.087 212.769C379.185 202.142 381.155 191.799 381.99 181.742L378.004 181.411C377.193 191.176 375.277 201.254 372.247 211.65L376.087 212.769ZM381.991 181.737C382.806 171.584 382.202 162.604 380.12 154.834L376.256 155.869C378.191 163.09 378.793 171.593 378.004 181.416L381.991 181.737ZM380.12 154.834C379.316 151.833 378.382 149.426 377.24 147.808C376.662 146.989 375.95 146.257 375.062 145.802C374.122 145.32 373.09 145.205 372.064 145.48L373.1 149.343C373.156 149.328 373.169 149.327 373.237 149.362C373.357 149.423 373.617 149.611 373.973 150.115C374.699 151.144 375.487 152.997 376.256 155.869L380.12 154.834ZM435.955 217.394L437.625 218.494L437.631 218.485L437.637 218.475L435.955 217.394ZM440.831 216.584L439.335 217.911L439.393 217.977L439.457 218.038L440.831 216.584ZM441.356 228.743L442.986 229.902L442.991 229.896L441.356 228.743ZM410.449 232.552L409.006 233.937L409.013 233.944L410.449 232.552ZM393.848 176.623L391.851 176.742L391.852 176.754L393.848 176.623ZM396.304 142.67L394.363 142.188L394.36 142.201L396.304 142.67ZM419.955 128.009L418.565 129.447L418.584 129.465L418.603 129.483L419.955 128.009ZM428.067 175.902L426.086 175.63L426.084 175.641L428.067 175.902ZM417.063 217.363L415.201 216.631L414.89 217.424L415.246 218.198L417.063 217.363ZM432.126 221.65L430.855 220.106L430.842 220.117L430.828 220.128L432.126 221.65ZM406.939 148.517L404.945 148.368L404.945 148.368L406.939 148.517ZM407.426 173.979L405.433 174.148L405.433 174.148L407.426 173.979ZM411.974 202.079L410.033 202.562L411.822 209.746L413.894 202.639L411.974 202.079ZM417.804 171.446L419.797 171.612L419.798 171.606L417.804 171.446ZM437.637 218.475C438.107 217.744 438.49 217.543 438.712 217.484L437.677 213.62C436.199 214.016 435.088 215.043 434.272 216.313L437.637 218.475ZM438.712 217.484C438.753 217.473 438.772 217.474 438.775 217.474C438.778 217.474 438.791 217.474 438.82 217.486C438.885 217.511 439.064 217.605 439.335 217.911L442.328 215.257C441.175 213.957 439.566 213.114 437.677 213.62L438.712 217.484ZM439.457 218.038C440.017 218.567 440.5 219.365 440.821 220.563L444.684 219.527C444.219 217.789 443.42 216.28 442.205 215.131L439.457 218.038ZM440.821 220.563C441.55 223.284 441.152 225.562 439.722 227.59L442.991 229.896C445.162 226.817 445.694 223.297 444.684 219.527L440.821 220.563ZM439.726 227.584C436.861 231.613 433.136 234.217 428.497 235.46L429.532 239.324C435.092 237.834 439.595 234.671 442.986 229.902L439.726 227.584ZM428.497 235.46C425.097 236.371 422.072 236.426 419.372 235.722C416.676 235.019 414.182 233.529 411.885 231.16L409.013 233.944C411.752 236.769 414.869 238.682 418.363 239.593C421.85 240.502 425.59 240.38 429.532 239.324L428.497 235.46ZM411.892 231.167C407.144 226.218 403.417 218.981 400.821 209.291L396.957 210.327C399.661 220.42 403.641 228.344 409.006 233.937L411.892 231.167ZM400.821 209.291C398.337 200.022 396.672 189.095 395.843 176.492L391.852 176.754C392.693 189.544 394.389 200.741 396.957 210.327L400.821 209.291ZM395.844 176.504C395.096 163.937 395.91 152.824 398.248 143.14L394.36 142.201C391.909 152.352 391.085 163.874 391.851 176.742L395.844 176.504ZM398.245 143.153C400.638 133.53 404.834 128.541 410.382 127.055L409.347 123.191C401.758 125.224 396.913 131.934 394.363 142.188L398.245 143.153ZM410.382 127.055C413.339 126.262 415.995 126.962 418.565 129.447L421.345 126.572C417.879 123.22 413.807 121.996 409.347 123.191L410.382 127.055ZM418.603 129.483C421.277 131.936 423.54 136.134 425.213 142.378L429.077 141.343C427.313 134.76 424.782 129.723 421.307 126.536L418.603 129.483ZM425.213 142.378C427.585 151.231 427.913 162.291 426.086 175.63L430.049 176.173C431.92 162.516 431.633 150.881 429.077 141.343L425.213 142.378ZM426.084 175.641C424.336 188.94 420.713 202.602 415.201 216.631L418.924 218.094C424.541 203.798 428.254 189.819 430.05 176.163L426.084 175.641ZM415.246 218.198C416.709 221.38 418.508 223.838 420.793 225.157L422.793 221.693C421.551 220.976 420.197 219.392 418.88 216.527L415.246 218.198ZM420.793 225.157C423.113 226.496 425.761 226.669 428.55 225.921L427.514 222.058C425.512 222.594 424.001 222.39 422.793 221.693L420.793 225.157ZM428.55 225.921C430.236 225.469 431.861 224.505 433.424 223.172L430.828 220.128C429.56 221.21 428.455 221.806 427.514 222.058L428.55 225.921ZM433.397 223.195C435.044 221.839 436.455 220.271 437.625 218.494L434.285 216.294C433.335 217.735 432.194 219.004 430.855 220.106L433.397 223.195ZM409.871 135.349C408.818 135.632 408.06 136.348 407.53 137.112C407.002 137.873 406.601 138.819 406.282 139.86C405.641 141.946 405.21 144.81 404.945 148.368L408.934 148.665C409.191 145.21 409.596 142.694 410.106 141.034C410.361 140.203 410.613 139.685 410.817 139.391C411.019 139.1 411.072 139.169 410.907 139.213L409.871 135.349ZM404.945 148.368C404.412 155.522 404.581 164.122 405.433 174.148L409.419 173.809C408.578 163.915 408.422 155.54 408.934 148.665L404.945 148.368ZM405.433 174.148C406.288 184.203 407.82 193.676 410.033 202.562L413.915 201.596C411.758 192.935 410.257 183.674 409.419 173.809L405.433 174.148ZM413.894 202.639C416.992 192.012 418.962 181.669 419.797 171.612L415.811 171.281C415 181.045 413.084 191.124 410.054 201.519L413.894 202.639ZM419.798 171.606C420.613 161.454 420.009 152.473 417.927 144.703L414.063 145.738C415.998 152.96 416.6 161.463 415.811 171.286L419.798 171.606ZM417.927 144.703C417.123 141.703 416.189 139.296 415.047 137.678C414.468 136.858 413.757 136.127 412.869 135.672C411.929 135.19 410.897 135.075 409.871 135.349L410.907 139.213C410.963 139.198 410.976 139.196 411.044 139.231C411.164 139.292 411.424 139.481 411.779 139.985C412.506 141.014 413.294 142.866 414.063 145.738L417.927 144.703Z" fill="white"/>
<circle cx="110" cy="66" r="5" fill="white"/>
<circle cx="138" cy="183" r="5" fill="white"/>
<circle cx="317.5" cy="154.5" r="2.5" fill="white"/>
<circle cx="379" cy="393" r="5" fill="white"/>
<circle cx="268" cy="369" r="5" fill="white"/>
<circle cx="192" cy="359" r="5" fill="white"/>
<circle cx="407" cy="273" r="5" fill="white"/>
<circle cx="47" cy="193" r="5" fill="white"/>
<circle cx="374" cy="86" r="5" fill="white"/>
<circle cx="347.5" cy="328.5" r="2.5" fill="white"/>
<circle cx="260.5" cy="318.5" r="2.5" fill="white"/>
<circle cx="314.5" cy="406.5" r="2.5" fill="white"/>
<circle cx="248" cy="442" r="5" fill="white"/>
<circle cx="105" cy="369" r="5" fill="white"/>
<circle cx="218" cy="86" r="5" fill="white"/>
<circle cx="309.5" cy="47.5" r="2.5" fill="white"/>
<circle cx="425.5" cy="340.5" r="2.5" fill="white"/>
<circle cx="160.5" cy="423.5" r="2.5" fill="white"/>
<circle cx="81.5" cy="142.5" r="2.5" fill="white"/>
<circle cx="223" cy="29" r="5" fill="white"/>
<circle cx="215.5" cy="149.5" r="2.5" fill="white"/>
<circle cx="285" cy="115" r="5" fill="white"/>
<circle cx="146" cy="107" r="3" fill="white"/>
</svg>
